<svg width="501" height="264" viewBox="0 0 501 264" fill="none" xmlns="http://www.w3.org/2000/svg">
<path d="M465.971 6.2285L250.654 216.117L35.3371 6.22843C31.4901 2.47083 26.3258 0.367179 20.9482 0.367178C15.5705 0.367177 10.4063 2.47083 6.55926 6.22842C4.69655 8.0535 3.21674 10.2319 2.2065 12.6361C1.19626 15.0402 0.6759 17.6218 0.6759 20.2296C0.675899 22.8374 1.19625 25.419 2.20649 27.8231C3.21673 30.2273 4.69655 32.4057 6.55926 34.2308L235.619 257.561C239.641 261.482 245.036 263.676 250.654 263.676C256.271 263.676 261.666 261.482 265.689 257.561L494.748 34.274C496.624 32.4475 498.115 30.2638 499.133 27.8516C500.151 25.4395 500.676 22.8479 500.676 20.2297C500.676 17.6115 500.151 15.0199 499.133 12.6077C498.115 10.1956 496.624 8.01186 494.748 6.18541C490.901 2.42782 485.737 0.324181 480.36 0.324181C474.982 0.32418 469.818 2.42781 465.971 6.1854L465.971 6.2285Z" fill="white" fill-opacity="0.87"/>
</svg>
