<svg width="12" height="26" viewBox="0 0 12 26" fill="none" xmlns="http://www.w3.org/2000/svg">
<path d="M9.54139 10.7464H2.39853V8.83333C2.39853 8.5176 2.52396 8.2148 2.74721 7.99154C2.97047 7.76828 3.27327 7.64286 3.58901 7.64286H4.77948V1.69048C4.77948 1.37474 4.90491 1.07194 5.12817 0.848682C5.35142 0.625425 5.65423 0.5 5.96996 0.5C6.28569 0.5 6.58849 0.625425 6.81175 0.848682C7.03501 1.07194 7.16044 1.37474 7.16044 1.69048V7.64286H8.35091C8.66665 7.64286 8.96945 7.76828 9.1927 7.99154C9.41596 8.2148 9.54139 8.5176 9.54139 8.83333V10.7464ZM10.5045 11.9369C10.9453 12.2695 11.3028 12.7 11.5489 13.1944C11.7949 13.6887 11.9228 14.2335 11.9223 14.7857V23.119C11.9223 23.7505 11.6715 24.3561 11.225 24.8026C10.7785 25.2491 10.1729 25.5 9.54139 25.5H2.39853C1.76706 25.5 1.16146 25.2491 0.714943 24.8026C0.268428 24.3561 0.0175781 23.7505 0.0175781 23.119V14.7857C0.0175781 13.6226 0.573531 12.5893 1.43544 11.9369H10.5045V11.9369Z" fill="white" fill-opacity="0.87"/>
</svg>
