<svg width="500" height="501" viewBox="0 0 500 501" fill="none" xmlns="http://www.w3.org/2000/svg">
<path d="M443.399 59.3685C424.938 40.6007 402.932 25.6881 378.659 15.4967C354.387 5.30527 328.331 0.0382362 302.006 0.00149471H301.326C275.095 -0.100473 249.106 5.01561 224.87 15.052C200.635 25.0884 178.638 39.8447 160.159 58.4621L83.7981 135.73L10.3824 210.052C3.68725 216.907 -0.042041 226.121 0.000357604 235.703C0.0427562 245.285 3.85344 254.466 10.609 261.261L75.4142 326.067C78.7438 329.476 82.7285 332.177 87.1286 334.007C91.5288 335.837 96.2536 336.759 101.019 336.716H101.246C106.061 336.734 110.831 335.78 115.27 333.911C119.708 332.042 123.724 329.297 127.077 325.84L199.586 251.518L275.721 173.797C282.467 167.147 291.535 163.381 301.008 163.296C310.48 163.211 319.614 166.815 326.478 173.344C329.849 176.655 332.528 180.604 334.356 184.961C336.185 189.319 337.127 193.997 337.127 198.722C337.163 208.896 333.171 218.671 326.024 225.913L248.757 300.688L174.435 372.971C170.952 376.298 168.171 380.29 166.258 384.71C164.344 389.131 163.337 393.89 163.294 398.707C163.252 403.523 164.176 408.3 166.012 412.753C167.847 417.206 170.557 421.246 173.981 424.634L238.787 489.666C245.638 496.315 254.798 500.053 264.346 500.095C273.893 500.137 283.086 496.481 289.996 489.892L364.545 416.477L440.68 341.928C518.627 263.98 519.987 137.316 443.399 59.3685ZM101.019 300.462L36.2139 235.657L96.7138 174.25L161.292 238.829L101.019 300.462ZM264.618 463.834L199.586 399.029L261.446 338.982L326.024 403.561L264.618 463.834ZM351.856 378.183L287.504 313.831L351.403 251.745H351.629C358.611 244.759 364.131 236.453 367.866 227.31C371.601 218.167 373.476 208.371 373.382 198.496C373.323 189.092 371.412 179.793 367.758 171.129C364.105 162.464 358.781 154.604 352.09 147.997C345.399 141.39 337.472 136.166 328.762 132.623C320.052 129.079 310.729 127.286 301.326 127.346C291.786 127.29 282.329 129.124 273.501 132.74C264.673 136.357 256.648 141.686 249.89 148.419L186.671 212.997L122.092 148.419L185.764 84.0669C200.92 68.8687 218.934 56.8196 238.768 48.614C258.601 40.4084 279.862 36.2085 301.326 36.2561H301.779C323.347 36.2845 344.693 40.6068 364.572 48.971C384.452 57.3353 402.467 69.5739 417.567 84.9733C480.107 148.419 478.974 252.424 415.075 316.323L351.856 378.183Z" fill="white" fill-opacity="0.87"/>
</svg>
