<svg width="584" height="500" viewBox="0 0 584 500" fill="none" xmlns="http://www.w3.org/2000/svg">
<path d="M0 41.6667C0 18.6589 18.6589 0 41.6667 0H541.667C564.714 0 583.333 18.6589 583.333 41.6667C583.333 64.7135 564.714 83.3333 541.667 83.3333H41.6667C18.6589 83.3333 0 64.7135 0 41.6667ZM0 250C0 226.953 18.6589 208.333 41.6667 208.333H541.667C564.714 208.333 583.333 226.953 583.333 250C583.333 273.047 564.714 291.667 541.667 291.667H41.6667C18.6589 291.667 0 273.047 0 250ZM541.667 500H41.6667C18.6589 500 0 481.38 0 458.333C0 435.286 18.6589 416.667 41.6667 416.667H541.667C564.714 416.667 583.333 435.286 583.333 458.333C583.333 481.38 564.714 500 541.667 500Z" fill="white" fill-opacity="0.87"/>
</svg>
