<svg width="33" height="25" viewBox="0 0 33 25" fill="none" xmlns="http://www.w3.org/2000/svg">
<path d="M31.9531 13.298L26.596 24.0123C26.2946 24.6205 25.6752 25 24.9498 25H3.57143C1.59877 25 0 23.4007 0 21.4286V3.57143C0 1.59933 1.59877 0 3.57143 0H10.1283C11.0753 0 11.9838 0.376228 12.654 1.04632L15.3962 3.57143H23.2143C25.1869 3.57143 26.7857 5.17076 26.7857 7.14286V8.92857H24.1071V7.14286C24.1071 6.65045 23.7066 6.25 23.2143 6.25H14.2857L10.7589 2.94029C10.5915 2.77121 10.3683 2.67857 10.1283 2.67857H3.57143C3.07924 2.67857 2.67857 3.07924 2.67857 3.57143V19.6429L6.64955 11.702C6.79773 11.405 7.0258 11.1553 7.30814 10.9808C7.59047 10.8063 7.91587 10.714 8.24777 10.7143H30.3571C31.6797 10.7143 32.5446 12.1094 31.9531 13.298Z" fill="white" fill-opacity="0.87"/>
</svg>
