<svg width="292" height="52" viewBox="0 0 292 52" fill="none" xmlns="http://www.w3.org/2000/svg">
<path d="M26 1C39.8071 1 51 12.1929 51 26C51 39.8071 39.8071 51 26 51C12.1929 51 1 39.8071 1 26C1 12.1929 12.1929 1 26 1Z" fill="white" fill-opacity="0.87" stroke="white" stroke-opacity="0.87" stroke-width="2"/>
<path d="M146 1C159.807 1 171 12.1929 171 26C171 39.8071 159.807 51 146 51C132.193 51 121 39.8071 121 26C121 12.1929 132.193 1 146 1Z" fill="white" fill-opacity="0.87" stroke="white" stroke-opacity="0.87" stroke-width="2"/>
<path d="M266 1C279.807 1 291 12.1929 291 26C291 39.8071 279.807 51 266 51C252.193 51 241 39.8071 241 26C241 12.1929 252.193 1 266 1Z" fill="white" fill-opacity="0.87" stroke="white" stroke-opacity="0.87" stroke-width="2"/>
</svg>
