<svg width="27" height="27" viewBox="0 0 27 27" fill="none" xmlns="http://www.w3.org/2000/svg">
<path d="M23.2223 1V6.55556M23.2223 26V12.1111M13.5001 1V17.6667M13.5001 26V23.2222M3.77783 1V3.77778M3.77783 26V9.33333" stroke="white" stroke-opacity="0.87" stroke-width="2" stroke-linecap="round"/>
<path d="M20.4444 9.33332C20.4444 10.8674 21.6881 12.1111 23.2222 12.1111C24.7563 12.1111 26 10.8674 26 9.33332C26 7.7992 24.7563 6.55554 23.2222 6.55554C21.6881 6.55554 20.4444 7.7992 20.4444 9.33332Z" stroke="white" stroke-opacity="0.87" stroke-width="2" stroke-linecap="round"/>
<path d="M10.7223 20.4444C10.7223 21.9786 11.9659 23.2222 13.5001 23.2222C15.0342 23.2222 16.2778 21.9786 16.2778 20.4444C16.2778 18.9103 15.0342 17.6667 13.5001 17.6667C11.9659 17.6667 10.7223 18.9103 10.7223 20.4444Z" stroke="white" stroke-opacity="0.87" stroke-width="2" stroke-linecap="round"/>
<path d="M1.00011 6.55555C1.00011 8.08967 2.24376 9.33333 3.77789 9.33333C5.31201 9.33333 6.55566 8.08967 6.55566 6.55555C6.55566 5.02142 5.31201 3.77777 3.77789 3.77777C2.24376 3.77777 1.00011 5.02142 1.00011 6.55555Z" stroke="white" stroke-opacity="0.87" stroke-width="2" stroke-linecap="round"/>
</svg>
