<svg width="264" height="500" viewBox="0 0 264 500" fill="none" xmlns="http://www.w3.org/2000/svg">
<path d="M5.90436 34.7053L215.793 250.022L5.90433 465.339C2.14674 469.186 0.0430794 474.35 0.043079 479.728C0.0430786 485.105 2.14673 490.27 5.90432 494.117C7.7294 495.979 9.90779 497.459 12.312 498.469C14.7161 499.48 17.2977 500 19.9055 500C22.5133 500 25.0949 499.48 27.499 498.469C29.9032 497.459 32.0816 495.979 33.9067 494.117L257.236 265.057C261.157 261.035 263.352 255.639 263.352 250.022C263.352 244.405 261.157 239.01 257.236 234.987L33.9498 5.92743C32.1234 4.05155 29.9396 2.56058 27.5275 1.54252C25.1153 0.524467 22.5237 -8.99163e-06 19.9055 -9.1893e-06C17.2874 -9.38697e-06 14.6957 0.524466 12.2836 1.54252C9.87145 2.56058 7.68771 4.05155 5.86126 5.92742C2.10367 9.77442 3.66211e-05 14.9387 3.62151e-05 20.3164C3.58091e-05 25.694 2.10367 30.8583 5.86126 34.7053L5.90436 34.7053Z" fill="white" fill-opacity="0.87"/>
</svg>
