<svg width="500" height="500" viewBox="0 0 500 500" fill="none" xmlns="http://www.w3.org/2000/svg">
<path d="M343.75 35.7143C343.75 26.2423 347.042 17.1582 352.903 10.4605C358.763 3.76274 366.712 0 375 0H437.5C445.788 0 453.737 3.76274 459.597 10.4605C465.458 17.1582 468.75 26.2423 468.75 35.7143V464.286H484.375C488.519 464.286 492.493 466.167 495.424 469.516C498.354 472.865 500 477.407 500 482.143C500 486.879 498.354 491.421 495.424 494.77C492.493 498.119 488.519 500 484.375 500H15.625C11.481 500 7.50671 498.119 4.57646 494.77C1.6462 491.421 0 486.879 0 482.143C0 477.407 1.6462 472.865 4.57646 469.516C7.50671 466.167 11.481 464.286 15.625 464.286H31.25V357.143C31.25 347.671 34.5424 338.587 40.4029 331.889C46.2634 325.191 54.212 321.429 62.5 321.429H125C133.288 321.429 141.237 325.191 147.097 331.889C152.958 338.587 156.25 347.671 156.25 357.143V464.286H187.5V214.286C187.5 204.814 190.792 195.73 196.653 189.032C202.513 182.334 210.462 178.571 218.75 178.571H281.25C289.538 178.571 297.487 182.334 303.347 189.032C309.208 195.73 312.5 204.814 312.5 214.286V464.286H343.75V35.7143Z" fill="white" fill-opacity="0.87"/>
</svg>
