<svg width="20" height="20" viewBox="0 0 20 20" fill="none" xmlns="http://www.w3.org/2000/svg">
<path d="M10.1172 0.875389C10.6255 0.314878 11.3148 0 12.0335 0C12.7521 0 13.4414 0.314878 13.9497 0.875389L19.2064 6.67421C19.7146 7.23489 20 7.99524 20 8.78804C20 9.58084 19.7146 10.3412 19.2064 10.9019L11.7529 19.124C11.2448 19.6847 10.5555 19.9998 9.8367 20H6.09775C5.37897 19.9998 4.68969 19.6847 4.18152 19.124L0.793559 15.3867C0.285443 14.826 0 14.0656 0 13.2728C0 12.48 0.285443 11.7197 0.793559 11.159L10.1159 0.875389H10.1172ZM12.9916 1.9323C12.7374 1.65205 12.3928 1.49461 12.0335 1.49461C11.6741 1.49461 11.3295 1.65205 11.0753 1.9323L4.79677 8.8583L11.9698 16.771L18.2483 9.84496C18.5024 9.56462 18.6451 9.18444 18.6451 8.78804C18.6451 8.39164 18.5024 8.01147 18.2483 7.73113L12.9916 1.9323V1.9323ZM11.0116 17.8279L3.83866 9.91522L1.75303 12.2159C1.49897 12.4963 1.35625 12.8764 1.35625 13.2728C1.35625 13.6692 1.49897 14.0494 1.75303 14.3297L5.14099 18.0671C5.39508 18.3474 5.73972 18.505 6.0991 18.5051H9.83806C10.1974 18.505 10.5421 18.3474 10.7962 18.0671L11.013 17.8279H11.0116Z" fill="white" fill-opacity="0.87"/>
</svg>
