<svg width="500" height="500" viewBox="0 0 500 500" fill="none" xmlns="http://www.w3.org/2000/svg">
<path d="M55.5556 83.3333C55.5556 75.9662 58.4821 68.9008 63.6915 63.6915C68.9008 58.4821 75.9662 55.5556 83.3333 55.5556H138.889C146.256 55.5556 153.321 52.629 158.531 47.4196C163.74 42.2103 166.667 35.1449 166.667 27.7778C166.667 20.4107 163.74 13.3453 158.531 8.13592C153.321 2.92658 146.256 0 138.889 0H83.3333C61.232 0 40.0358 8.77974 24.4078 24.4078C8.77974 40.0358 0 61.232 0 83.3333V138.889C0 146.256 2.92658 153.321 8.13592 158.531C13.3453 163.74 20.4107 166.667 27.7778 166.667C35.1449 166.667 42.2103 163.74 47.4196 158.531C52.629 153.321 55.5556 146.256 55.5556 138.889V83.3333ZM55.5556 416.667C55.5556 424.034 58.4821 431.099 63.6915 436.309C68.9008 441.518 75.9662 444.444 83.3333 444.444H138.889C146.256 444.444 153.321 447.371 158.531 452.58C163.74 457.79 166.667 464.855 166.667 472.222C166.667 479.589 163.74 486.655 158.531 491.864C153.321 497.073 146.256 500 138.889 500H83.3333C61.232 500 40.0358 491.22 24.4078 475.592C8.77974 459.964 0 438.768 0 416.667V361.111C0 353.744 2.92658 346.679 8.13592 341.469C13.3453 336.26 20.4107 333.333 27.7778 333.333C35.1449 333.333 42.2103 336.26 47.4196 341.469C52.629 346.679 55.5556 353.744 55.5556 361.111V416.667ZM416.667 55.5556C424.034 55.5556 431.099 58.4821 436.309 63.6915C441.518 68.9008 444.444 75.9662 444.444 83.3333V138.889C444.444 146.256 447.371 153.321 452.58 158.531C457.79 163.74 464.855 166.667 472.222 166.667C479.589 166.667 486.655 163.74 491.864 158.531C497.073 153.321 500 146.256 500 138.889V83.3333C500 61.232 491.22 40.0358 475.592 24.4078C459.964 8.77974 438.768 0 416.667 0H361.111C353.744 0 346.679 2.92658 341.469 8.13592C336.26 13.3453 333.333 20.4107 333.333 27.7778C333.333 35.1449 336.26 42.2103 341.469 47.4196C346.679 52.629 353.744 55.5556 361.111 55.5556H416.667ZM444.444 416.667C444.444 424.034 441.518 431.099 436.309 436.309C431.099 441.518 424.034 444.444 416.667 444.444H361.111C353.744 444.444 346.679 447.371 341.469 452.58C336.26 457.79 333.333 464.855 333.333 472.222C333.333 479.589 336.26 486.655 341.469 491.864C346.679 497.073 353.744 500 361.111 500H416.667C438.768 500 459.964 491.22 475.592 475.592C491.22 459.964 500 438.768 500 416.667V361.111C500 353.744 497.073 346.679 491.864 341.469C486.655 336.26 479.589 333.333 472.222 333.333C464.855 333.333 457.79 336.26 452.58 341.469C447.371 346.679 444.444 353.744 444.444 361.111V416.667Z" fill="white" fill-opacity="0.87"/>
</svg>
