<svg width="500" height="500" viewBox="0 0 500 500" fill="none" xmlns="http://www.w3.org/2000/svg">
<path d="M250 0C217.17 0 184.661 6.46644 154.329 19.0301C123.998 31.5938 96.438 50.0087 73.2233 73.2233C26.3392 120.107 0 183.696 0 250C0 316.304 26.3392 379.893 73.2233 426.777C96.438 449.991 123.998 468.406 154.329 480.97C184.661 493.534 217.17 500 250 500C316.304 500 379.893 473.661 426.777 426.777C473.661 379.893 500 316.304 500 250C500 217.17 493.534 184.661 480.97 154.329C468.406 123.998 449.991 96.438 426.777 73.2233C403.562 50.0087 376.002 31.5938 345.671 19.0301C315.339 6.46644 282.83 0 250 0ZM250 50C303.043 50 353.914 71.0714 391.421 108.579C428.929 146.086 450 196.957 450 250C450 310 425 362.5 382.5 400C347.5 367.5 300 350 250 350C200 350 155 367.5 117.5 400C75 362.5 50 310 50 250C50 196.957 71.0714 146.086 108.579 108.579C146.086 71.0714 196.957 50 250 50ZM300 97.25C290.5 97.5 281.5 103.75 277.5 113.5L245.25 194.25L242.75 200C225 203.25 210.25 215 203.5 231.5C193.25 257.25 205.75 286.25 231.5 296.5C257.25 306.75 286.25 294.25 296.5 268.5C303 252 300 233 289.25 219L291.75 212.5L324 132.25L324.25 131.5C329.25 118.75 323 104.25 310.25 99C307 97.75 303.75 97.25 300 97.25ZM200 100C193.37 100 187.011 102.634 182.322 107.322C177.634 112.011 175 118.37 175 125C175 131.63 177.634 137.989 182.322 142.678C187.011 147.366 193.37 150 200 150C206.63 150 212.989 147.366 217.678 142.678C222.366 137.989 225 131.63 225 125C225 118.37 222.366 112.011 217.678 107.322C212.989 102.634 206.63 100 200 100ZM125 175C118.37 175 112.011 177.634 107.322 182.322C102.634 187.011 100 193.37 100 200C100 206.63 102.634 212.989 107.322 217.678C112.011 222.366 118.37 225 125 225C131.63 225 137.989 222.366 142.678 217.678C147.366 212.989 150 206.63 150 200C150 193.37 147.366 187.011 142.678 182.322C137.989 177.634 131.63 175 125 175ZM375 175C368.37 175 362.011 177.634 357.322 182.322C352.634 187.011 350 193.37 350 200C350 206.63 352.634 212.989 357.322 217.678C362.011 222.366 368.37 225 375 225C381.63 225 387.989 222.366 392.678 217.678C397.366 212.989 400 206.63 400 200C400 193.37 397.366 187.011 392.678 182.322C387.989 177.634 381.63 175 375 175Z" fill="white" fill-opacity="0.87"/>
</svg>
