<svg width="500" height="500" viewBox="0 0 500 500" fill="none" xmlns="http://www.w3.org/2000/svg">
<path d="M475 407.5V92.5C490 85 500 67.5 500 50C500 22.5 477.5 0 450 0C432.5 0 415 10 407.5 25H92.5C85 10 67.5 0 50 0C22.5 0 0 22.5 0 50C0 67.5 10 85 25 92.5V407.5C10 415 0 432.5 0 450C0 477.5 22.5 500 50 500C67.5 500 85 490 92.5 475H407.5C415 490 432.5 500 450 500C477.5 500 500 477.5 500 450C500 432.5 490 415 475 407.5ZM425 407.5C417.5 412.5 412.5 417.5 407.5 425H92.5C87.5 417.5 82.5 412.5 75 407.5V92.5C82.5 87.5 87.5 82.5 92.5 75H407.5C412.5 82.5 417.5 87.5 425 92.5V407.5ZM300 175V150C300 135 290 125 275 125H150C135 125 125 135 125 150V275C125 290 135 300 150 300H175V225C175 197.5 197.5 175 225 175H300ZM350 200H225C210 200 200 210 200 225V350C200 365 210 375 225 375H350C365 375 375 365 375 350V225C375 210 365 200 350 200Z" fill="white" fill-opacity="0.87"/>
</svg>
