<svg width="500" height="500" viewBox="0 0 500 500" fill="none" xmlns="http://www.w3.org/2000/svg">
<path d="M494.792 448.864H46.875V5.68182C46.875 2.55682 44.5313 0 41.6667 0H5.20833C2.34375 0 0 2.55682 0 5.68182V494.318C0 497.443 2.34375 500 5.20833 500H494.792C497.656 500 500 497.443 500 494.318V454.545C500 451.42 497.656 448.864 494.792 448.864ZM115.755 339.276C117.773 341.477 121.029 341.477 123.112 339.276L213.151 241.548L296.224 332.741C298.242 334.943 301.563 334.943 303.581 332.741L482.878 137.216C484.896 135.014 484.896 131.392 482.878 129.19L457.096 101.065C456.117 100.008 454.796 99.4148 453.418 99.4148C452.04 99.4148 450.718 100.008 449.74 101.065L300 264.347L217.057 173.295C216.078 172.238 214.756 171.645 213.379 171.645C212.001 171.645 210.679 172.238 209.701 173.295L90.0391 303.054C89.0698 304.122 88.526 305.564 88.526 307.067C88.526 308.57 89.0698 310.012 90.0391 311.08L115.755 339.276Z" fill="white" fill-opacity="0.87"/>
</svg>
