<svg width="26" height="26" viewBox="0 0 26 26" fill="none" xmlns="http://www.w3.org/2000/svg">
<path d="M2.41531 5.04545V23.2273H20.5971V25.5H2.41531C1.81254 25.5 1.23446 25.2606 0.808245 24.8343C0.382026 24.4081 0.142578 23.83 0.142578 23.2273V5.04545H2.41531ZM17.188 14.1364H19.4608V7.31818H17.188V14.1364ZM22.8699 0.5H6.96076C5.71076 0.5 4.68803 1.52273 4.68803 2.77273V18.6818C4.68803 19.2846 4.92748 19.8627 5.3537 20.2889C5.77992 20.7151 6.358 20.9545 6.96076 20.9545H22.8699C24.1312 20.9545 25.1426 19.9432 25.1426 18.6818V2.77273C25.1426 2.16996 24.9031 1.59189 24.4769 1.16567C24.0507 0.739447 23.4726 0.5 22.8699 0.5ZM12.6426 16.4091H10.3699V7.31818H8.09712V5.04545H12.6426V16.4091ZM21.7335 14.1364C21.7335 15.3977 20.7221 16.4091 19.4608 16.4091H17.188C16.5853 16.4091 16.0072 16.1696 15.581 15.7434C15.1548 15.3172 14.9153 14.7391 14.9153 14.1364V7.31818C14.9153 6.06818 15.938 5.04545 17.188 5.04545H19.4608C20.0635 5.04545 20.6416 5.2849 21.0678 5.71112C21.494 6.13734 21.7335 6.71542 21.7335 7.31818V14.1364Z" fill="white" fill-opacity="0.87"/>
</svg>
