<svg width="500" height="500" viewBox="0 0 500 500" fill="none" xmlns="http://www.w3.org/2000/svg">
<path d="M0 249.594C0.0833299 116.912 103.433 8.39548 234.011 0.0416649L234.74 0V249.594C234.74 252.489 235.532 255.198 236.928 257.489L236.886 257.427L361.652 473.626C327.02 491.065 288.763 500.086 249.99 499.958C111.933 499.958 0 388.025 0 249.969V249.594V249.615V249.594ZM277.447 265.26H499.979C497.62 303.629 486.449 340.938 467.333 374.289C448.216 407.64 421.67 436.136 389.755 457.564L388.859 458.127L277.447 265.26ZM266.031 233.949V0C391.859 8.083 491.896 108.12 499.958 233.199L500 233.928L266.031 233.949Z" fill="white" fill-opacity="0.87"/>
</svg>
