<svg width="20" height="20" viewBox="0 0 20 20" fill="none" xmlns="http://www.w3.org/2000/svg">
<path d="M10.0003 6.43293C9.01328 6.43293 8.06664 6.80909 7.36868 7.47864C6.67072 8.1482 6.27861 9.05632 6.27861 10.0032C6.27861 10.9501 6.67072 11.8582 7.36868 12.5278C8.06664 13.1973 9.01328 13.5735 10.0003 13.5735C10.9874 13.5735 11.934 13.1973 12.632 12.5278C13.33 11.8582 13.7221 10.9501 13.7221 10.0032C13.7221 9.05632 13.33 8.1482 12.632 7.47864C11.934 6.80909 10.9874 6.43293 10.0003 6.43293ZM7.76731 10.0032C7.76731 9.43507 8.00257 8.89021 8.42135 8.48847C8.84012 8.08674 9.40811 7.86104 10.0003 7.86104C10.5926 7.86104 11.1606 8.08674 11.5793 8.48847C11.9981 8.89021 12.2334 9.43507 12.2334 10.0032C12.2334 10.5714 11.9981 11.1162 11.5793 11.518C11.1606 11.9197 10.5926 12.1454 10.0003 12.1454C9.40811 12.1454 8.84012 11.9197 8.42135 11.518C8.00257 11.1162 7.76731 10.5714 7.76731 10.0032ZM7.64821 19.7344C8.41861 19.9107 9.20836 20 10.0003 20C10.7916 19.9988 11.58 19.909 12.3495 19.7322C12.5706 19.6822 12.7702 19.5678 12.9208 19.4047C13.0714 19.2415 13.1656 19.0377 13.1906 18.8211L13.3648 17.3002C13.3816 17.1342 13.4393 16.9745 13.5332 16.8343C13.6271 16.694 13.7544 16.5772 13.9047 16.4934C14.0549 16.4097 14.2238 16.3615 14.3973 16.3528C14.5709 16.3441 14.7441 16.3751 14.9026 16.4433L16.3578 17.0545C16.5661 17.1425 16.7978 17.166 17.0207 17.1219C17.2436 17.0777 17.4466 16.9681 17.6016 16.8082C18.6768 15.6968 19.4795 14.3689 19.9508 12.9216C20.0183 12.7122 20.0163 12.4879 19.9449 12.2797C19.8736 12.0715 19.7364 11.8898 19.5525 11.7598L18.2656 10.8494C18.125 10.7511 18.0107 10.6223 17.9319 10.4735C17.8531 10.3248 17.8122 10.1602 17.8124 9.99338C17.8126 9.82653 17.854 9.66209 17.9332 9.51351C18.0123 9.36493 18.127 9.23642 18.2678 9.13849L19.5481 8.23164C19.733 8.10195 19.871 7.91998 19.9427 7.71124C20.0144 7.50251 20.0162 7.27748 19.9478 7.06773C19.4773 5.6199 18.6743 4.29176 17.5979 3.18112C17.4422 3.02149 17.2388 2.91207 17.0157 2.86795C16.7925 2.82384 16.5606 2.84718 16.3519 2.93477L14.9034 3.546C14.7446 3.61239 14.5718 3.64201 14.3989 3.63247C14.226 3.62293 14.0578 3.57449 13.908 3.49108C13.7583 3.40766 13.631 3.2916 13.5367 3.15229C13.4423 3.01298 13.3834 2.85432 13.3648 2.68914L13.1891 1.17534C13.1646 0.956161 13.069 0.749891 12.9158 0.585551C12.7627 0.421212 12.5597 0.307075 12.3354 0.259202C11.571 0.0953609 10.7909 0.00848958 10.0078 0C9.22 0.00894855 8.43528 0.0958088 7.66607 0.259202C7.44175 0.306257 7.23855 0.419865 7.08531 0.583919C6.93207 0.747972 6.83655 0.954143 6.81231 1.17319L6.6359 2.68842C6.61663 2.85385 6.55724 3.01266 6.4625 3.15212C6.36775 3.29157 6.24028 3.40781 6.0903 3.49152C5.94031 3.57522 5.77197 3.62407 5.59877 3.63416C5.42556 3.64424 5.25231 3.61527 5.09287 3.54957L3.64437 2.93763C3.43537 2.85247 3.2042 2.83077 2.98196 2.87545C2.75972 2.92013 2.55708 3.02905 2.40131 3.18755C1.32472 4.29926 0.521043 5.62797 0.0491792 7.0763C-0.0179802 7.28552 -0.0156578 7.50959 0.0558248 7.71749C0.127307 7.92538 0.264412 8.10681 0.448149 8.23664L1.73215 9.14492C1.87202 9.24365 1.98573 9.37255 2.06409 9.52121C2.14246 9.66987 2.1833 9.83412 2.1833 10.0007C2.1833 10.1673 2.14246 10.3316 2.06409 10.4802C1.98573 10.6289 1.87202 10.7578 1.73215 10.8565L0.448149 11.7669C0.263717 11.897 0.126215 12.0791 0.0548265 12.2877C-0.0165621 12.4964 -0.0182761 12.7212 0.0499235 12.9308C0.521569 14.3801 1.32524 15.7098 2.40206 16.8224C2.50443 16.928 2.62854 17.0121 2.76654 17.0692C2.90454 17.1264 3.05341 17.1554 3.20372 17.1545C3.35482 17.1545 3.50443 17.1245 3.64363 17.0667L5.09882 16.4533C5.25754 16.3875 5.43014 16.3583 5.60274 16.3682C5.77533 16.378 5.94312 16.4265 6.09261 16.5099C6.24211 16.5932 6.36913 16.709 6.46349 16.848C6.55785 16.987 6.6169 17.1453 6.6359 17.3102L6.81082 18.8282C6.83622 19.0437 6.93026 19.2463 7.08012 19.4086C7.22997 19.5709 7.42835 19.6849 7.64821 19.7351V19.7344ZM11.7429 18.4019C10.5944 18.6279 9.41003 18.6279 8.26155 18.4019L8.1164 17.1595C8.04545 16.5517 7.74332 15.9903 7.26785 15.5828C6.89559 15.2684 6.43823 15.0613 5.94856 14.9855C5.45888 14.9097 4.95685 14.9683 4.50037 15.1544L3.30495 15.6543C2.5338 14.8072 1.94037 13.8252 1.55722 12.7623L2.61717 12.0111C2.94464 11.7797 3.21083 11.4776 3.39428 11.1293C3.57773 10.781 3.67331 10.3963 3.67331 10.0061C3.67331 9.61585 3.57773 9.2311 3.39428 8.88282C3.21083 8.53454 2.94464 8.23248 2.61717 8.001L1.55946 7.25195C1.94305 6.19012 2.53645 5.20919 3.30718 4.36288L4.49814 4.86272C4.82639 5.00178 5.18139 5.07329 5.54022 5.07266C6.17923 5.07073 6.79522 4.84358 7.27104 4.43439C7.74685 4.0252 8.0493 3.46252 8.12087 2.85337L8.26527 1.60591C8.8414 1.4988 9.42645 1.44168 10.0123 1.43454C10.5943 1.44168 11.1749 1.4988 11.7466 1.60591L11.885 2.84837C11.954 3.45792 12.2554 4.02149 12.7314 4.43072C13.1038 4.74709 13.5624 4.95535 14.0536 5.03121C14.5448 5.10707 15.0484 5.04739 15.5055 4.85915L16.6965 4.35931C17.4683 5.20539 18.0623 6.18667 18.4457 7.2491L17.3865 7.996C17.0573 8.22668 16.7896 8.52862 16.605 8.87728C16.4204 9.22593 16.3242 9.61146 16.3242 10.0025C16.3242 10.3935 16.4204 10.7791 16.605 11.1277C16.7896 11.4764 17.0573 11.7783 17.3865 12.009L18.445 12.7588C18.0612 13.8192 17.4686 14.799 16.6995 15.645L15.5085 15.1451C15.1358 14.986 14.7292 14.9138 14.3218 14.9343C13.9145 14.9549 13.518 15.0676 13.1647 15.2633C12.8115 15.459 12.5115 15.7321 12.2893 16.0603C12.0672 16.3885 11.9292 16.7625 11.8865 17.1516L11.7429 18.4012V18.4019Z" fill="white" fill-opacity="0.87"/>
</svg>
