<svg width="500" height="500" viewBox="0 0 500 500" fill="none" xmlns="http://www.w3.org/2000/svg">
<path d="M0 62.5C0 45.924 6.5848 30.0269 18.3058 18.3058C30.0269 6.5848 45.924 0 62.5 0L437.5 0C454.076 0 469.973 6.5848 481.694 18.3058C493.415 30.0269 500 45.924 500 62.5V437.5C500 454.076 493.415 469.973 481.694 481.694C469.973 493.415 454.076 500 437.5 500H62.5C45.924 500 30.0269 493.415 18.3058 481.694C6.5848 469.973 0 454.076 0 437.5V62.5ZM468.75 125H343.75V218.75H468.75V125ZM468.75 250H343.75V343.75H468.75V250ZM468.75 375H343.75V468.75H437.5C445.788 468.75 453.737 465.458 459.597 459.597C465.458 453.737 468.75 445.788 468.75 437.5V375ZM312.5 468.75V375H187.5V468.75H312.5ZM156.25 468.75V375H31.25V437.5C31.25 445.788 34.5424 453.737 40.4029 459.597C46.2634 465.458 54.212 468.75 62.5 468.75H156.25ZM31.25 343.75H156.25V250H31.25V343.75ZM31.25 218.75H156.25V125H31.25V218.75ZM187.5 125V218.75H312.5V125H187.5ZM312.5 250H187.5V343.75H312.5V250Z" fill="white" fill-opacity="0.87"/>
</svg>
