<svg width="21" height="26" viewBox="0 0 21 26" fill="none" xmlns="http://www.w3.org/2000/svg">
<path d="M0.142578 1.83929C0.142578 1.48409 0.283681 1.14343 0.534846 0.892268C0.78601 0.641103 1.12666 0.5 1.48186 0.5H19.339C19.6942 0.5 20.0349 0.641103 20.286 0.892268C20.5372 1.14343 20.6783 1.48409 20.6783 1.83929V4.51786C20.6783 4.87306 20.5372 5.21371 20.286 5.46488C20.0349 5.71604 19.6942 5.85714 19.339 5.85714C18.9838 5.85714 18.6432 5.71604 18.392 5.46488C18.1408 5.21371 17.9997 4.87306 17.9997 4.51786V3.17857H11.7497V22.8214H13.9819C14.3371 22.8214 14.6777 22.9625 14.9289 23.2137C15.18 23.4649 15.3212 23.8055 15.3212 24.1607C15.3212 24.5159 15.18 24.8566 14.9289 25.1077C14.6777 25.3589 14.3371 25.5 13.9819 25.5H6.83901C6.48381 25.5 6.14315 25.3589 5.89199 25.1077C5.64082 24.8566 5.49972 24.5159 5.49972 24.1607C5.49972 23.8055 5.64082 23.4649 5.89199 23.2137C6.14315 22.9625 6.48381 22.8214 6.83901 22.8214H9.07115V3.17857H2.82115V4.51786C2.82115 4.87306 2.68005 5.21371 2.42888 5.46488C2.17772 5.71604 1.83706 5.85714 1.48186 5.85714C1.12666 5.85714 0.78601 5.71604 0.534846 5.46488C0.283681 5.21371 0.142578 4.87306 0.142578 4.51786V1.83929Z" fill="white" fill-opacity="0.87"/>
</svg>
