<svg width="500" height="500" viewBox="0 0 500 500" fill="none" xmlns="http://www.w3.org/2000/svg">
<path d="M275 500H200V425H275V500ZM275 375H200V374.825C200 333.575 200 297.95 216.8 273C229.87 256.435 246.133 242.663 264.625 232.5C272.975 227.15 280.85 222.075 287.475 216.8C301.686 205.801 312.397 190.912 318.309 173.941C324.22 156.97 325.077 138.649 320.775 121.201C314.029 105.074 301.919 91.7743 286.494 83.5511C271.068 75.328 253.276 72.6869 236.127 76.0749C218.978 79.4628 203.527 88.6718 192.388 102.143C181.249 115.614 175.106 132.521 175 150H100C100 110.218 115.804 72.065 143.934 43.9346C172.064 15.8042 210.217 0.000681731 250 0.000681731C278.248 -0.0841876 305.954 7.75663 329.969 22.6321C353.983 37.5075 373.344 58.8211 385.85 84.1506C397.083 109.959 400.849 138.401 396.722 166.243C392.594 194.086 380.737 220.211 362.5 241.65C351.175 254.2 338.5 265.4 324.65 275.075C312.539 283.429 301.491 293.226 291.75 304.25C277.98 325.113 272.046 350.178 275 375Z" fill="white" fill-opacity="0.6"/>
</svg>
