<svg width="500" height="500" viewBox="0 0 500 500" fill="none" xmlns="http://www.w3.org/2000/svg">
<path d="M255.005 59.5134C228.247 40.8457 189.913 57.706 188.442 88.793L186.305 133.358H249.815C257.176 133.358 264.237 136.078 269.442 140.92C274.648 145.762 277.572 152.33 277.572 159.178C277.572 166.025 274.648 172.593 269.442 177.435C264.237 182.277 257.176 184.997 249.815 184.997H183.834L172.926 413.502C169.317 489.18 73.192 527.367 11.903 477.509L9.48803 475.547C6.7432 473.314 4.49803 470.6 2.88071 467.561C1.26339 464.521 0.3056 461.214 0.0620224 457.83C-0.181556 454.446 0.293849 451.05 1.46109 447.837C2.62834 444.624 4.46456 441.656 6.86492 439.102C9.26528 436.549 12.1828 434.461 15.4508 432.956C18.7189 431.452 22.2735 430.561 25.9117 430.335C29.5499 430.108 33.2004 430.55 36.6549 431.636C40.1094 432.722 43.3001 434.43 46.045 436.662L48.4599 438.625C74.7187 460.029 115.911 443.634 117.466 411.204L128.291 184.997H83.2681C75.9063 184.997 68.846 182.277 63.6404 177.435C58.4348 172.593 55.5104 166.025 55.5104 159.178C55.5104 152.33 58.4348 145.762 63.6404 140.92C68.846 136.078 75.9063 133.358 83.2681 133.358H130.734L132.954 86.495C136.452 13.9415 225.86 -25.3561 288.315 18.2018L294.227 22.3329C297.143 24.3674 299.6 26.9161 301.457 29.8337C303.314 32.7514 304.536 35.9807 305.051 39.3373C305.567 42.6939 305.366 46.1121 304.462 49.3967C303.557 52.6813 301.966 55.768 299.778 58.4806C297.591 61.1931 294.851 63.4784 291.715 65.206C288.578 66.9335 285.106 68.0695 281.498 68.549C277.889 69.0285 274.214 68.8422 270.683 68.0007C267.152 67.1592 263.834 65.679 260.918 63.6445L255.005 59.5134V59.5134ZM279.848 289.464C281.509 288.615 283.339 288.092 285.225 287.926C287.112 287.761 289.015 287.956 290.817 288.5C292.619 289.044 294.282 289.926 295.704 291.091C297.126 292.256 298.276 293.679 299.085 295.274L321.652 339.864L230.19 424.94C225.134 429.81 222.336 436.332 222.399 443.102C222.462 449.872 225.381 456.348 230.528 461.135C235.674 465.922 242.636 468.638 249.914 468.696C257.192 468.755 264.204 466.153 269.439 461.449L346.772 389.516L368.423 432.299C372.926 441.199 379.556 449.025 387.807 455.178C396.057 461.33 405.711 465.648 416.029 467.8C426.348 469.953 437.059 469.883 447.344 467.596C457.629 465.31 467.217 460.867 475.374 454.607L489.53 443.763C492.413 441.628 494.811 438.98 496.582 435.975C498.354 432.969 499.464 429.665 499.849 426.256C500.233 422.847 499.884 419.401 498.821 416.119C497.759 412.836 496.005 409.784 493.66 407.139C491.316 404.494 488.43 402.309 485.168 400.713C481.907 399.117 478.337 398.141 474.666 397.841C470.995 397.542 467.297 397.926 463.787 398.97C460.277 400.014 457.026 401.698 454.222 403.923L440.066 414.767C438.436 416.022 436.519 416.913 434.462 417.373C432.405 417.833 430.262 417.849 428.196 417.421C426.131 416.992 424.199 416.13 422.547 414.901C420.895 413.671 419.567 412.106 418.665 410.326L388.492 350.709L463.743 280.711C466.395 278.329 468.509 275.48 469.964 272.33C471.419 269.18 472.184 265.792 472.216 262.364C472.248 258.935 471.546 255.535 470.151 252.362C468.755 249.189 466.694 246.306 464.087 243.882C461.481 241.458 458.382 239.541 454.971 238.242C451.559 236.944 447.904 236.291 444.219 236.321C440.533 236.35 436.891 237.063 433.504 238.416C430.117 239.769 427.055 241.736 424.494 244.202L363.371 301.057L349.326 273.301C345.289 265.321 339.537 258.195 332.424 252.363C325.312 246.531 316.99 242.117 307.972 239.392C298.954 236.668 289.432 235.692 279.993 236.523C270.553 237.355 261.397 239.977 253.09 244.228L236.435 252.748C230.12 256.114 225.479 261.653 223.511 268.171C221.544 274.69 222.408 281.666 225.916 287.598C229.425 293.53 235.298 297.942 242.271 299.885C249.243 301.828 256.757 301.145 263.194 297.985L279.848 289.464V289.464Z" fill="white" fill-opacity="0.6"/>
</svg>
