<svg width="26" height="30" viewBox="0 0 26 30" fill="none" xmlns="http://www.w3.org/2000/svg">
<path d="M25.6992 24.6478C25.6992 26.0673 25.1353 27.4286 24.1315 28.4324C23.1278 29.4361 21.7664 30 20.3469 30C18.9274 30 17.5661 29.4361 16.5623 28.4324C15.5586 27.4286 14.9947 26.0673 14.9947 24.6478C14.9969 23.9845 15.1193 23.3272 15.356 22.7076L9.18754 18.747C8.4449 19.5099 7.49158 20.034 6.44947 20.2523C5.40736 20.4706 4.32383 20.3731 3.33743 19.9723C2.35103 19.5715 1.50658 18.8856 0.91207 18.0023C0.317558 17.119 0 16.0785 0 15.0138C0 13.9491 0.317558 12.9085 0.91207 12.0252C1.50658 11.142 2.35103 10.4561 3.33743 10.0553C4.32383 9.65446 5.40736 9.55696 6.44947 9.77523C7.49158 9.99351 8.4449 10.5176 9.18754 11.2806L15.356 7.31996C15.1193 6.70039 14.9969 6.04302 14.9947 5.37978C14.9914 4.13499 15.421 2.9278 16.21 1.96495C16.9989 1.0021 18.0981 0.343508 19.3192 0.10198C20.5403 -0.139547 21.8074 0.0510144 22.9035 0.641027C23.9996 1.23104 24.8564 2.18379 25.3273 3.3361C25.7981 4.4884 25.8536 5.76857 25.4844 6.95732C25.1151 8.14607 24.344 9.16946 23.3031 9.85218C22.2623 10.5349 21.0164 10.8345 19.779 10.6996C18.5415 10.5648 17.3895 10.0039 16.5201 9.11295L10.3517 13.0736C10.8332 14.3222 10.8332 15.7053 10.3517 16.954L16.5201 20.9146C17.2632 20.1546 18.2158 19.6331 19.2565 19.4165C20.2971 19.1999 21.3787 19.2981 22.3633 19.6986C23.348 20.0991 24.1911 20.7836 24.7851 21.665C25.3792 22.5465 25.6974 23.5848 25.6992 24.6478Z" fill="white"/>
</svg>
