<svg width="28" height="30" viewBox="0 0 28 30" fill="none" xmlns="http://www.w3.org/2000/svg">
<path d="M26.3035 6.98356C26.3439 6.95997 26.3775 6.9262 26.4008 6.88561C26.4241 6.84502 26.4364 6.79903 26.4364 6.75222C26.4364 6.70541 26.4241 6.65942 26.4008 6.61883C26.3775 6.57824 26.3439 6.54447 26.3035 6.52088L16.078 0.579056C15.4237 0.199754 14.6809 0 13.9247 0C13.1684 0 12.4256 0.199754 11.7713 0.579056L1.54782 6.52088C1.5074 6.54447 1.47386 6.57824 1.45055 6.61883C1.42724 6.65942 1.41498 6.70541 1.41498 6.75222C1.41498 6.79903 1.42724 6.84502 1.45055 6.88561C1.47386 6.9262 1.5074 6.95997 1.54782 6.98356L13.7911 14.1869C13.8323 14.2111 13.8792 14.2239 13.927 14.2239C13.9748 14.2239 14.0217 14.2111 14.0629 14.1869L26.3035 6.98356ZM0.401688 8.80548C0.360852 8.7819 0.314514 8.76952 0.267359 8.7696C0.220205 8.76967 0.173906 8.7822 0.133145 8.80591C0.0923848 8.82962 0.0586076 8.86368 0.0352291 8.90464C0.0118505 8.9456 -0.000300244 8.992 5.63554e-06 9.03916V20.6824C0.00101634 21.2435 0.148875 21.7946 0.428877 22.2808C0.708879 22.767 1.11127 23.1714 1.59602 23.4538L12.4522 29.9641C12.4929 29.9876 12.539 30 12.586 30C12.633 30 12.6791 29.9877 12.7198 29.9642C12.7605 29.9407 12.7943 29.9069 12.8179 29.8663C12.8414 29.8256 12.8538 29.7794 12.8538 29.7324V16.2237C12.8538 16.1768 12.8414 16.1306 12.8179 16.09C12.7944 16.0493 12.7606 16.0155 12.72 15.9921L0.401688 8.80548ZM14.9962 16.2706V29.7291C14.9962 29.7761 15.0086 29.8222 15.0321 29.8629C15.0557 29.9036 15.0895 29.9374 15.1302 29.9608C15.1709 29.9843 15.217 29.9967 15.264 29.9967C15.311 29.9966 15.3572 29.9843 15.3978 29.9608L26.2533 23.4505C26.7377 23.1684 27.1399 22.7646 27.42 22.279C27.7001 21.7934 27.8483 21.243 27.85 20.6824V9.03916C27.8498 8.99223 27.8373 8.94616 27.8138 8.90558C27.7902 8.86499 27.7564 8.83132 27.7157 8.80792C27.675 8.78453 27.6289 8.77223 27.582 8.77228C27.5351 8.77232 27.489 8.78469 27.4483 8.80816L15.1301 16.0396C15.0895 16.063 15.0558 16.0967 15.0323 16.1372C15.0088 16.1778 14.9963 16.2237 14.9962 16.2706V16.2706Z" fill="white"/>
</svg>
