<svg width="30" height="30" viewBox="0 0 30 30" fill="none" xmlns="http://www.w3.org/2000/svg">
<path d="M17.8152 30H12.1873C11.8347 30.0001 11.4926 29.8832 11.2179 29.6687C10.9432 29.4543 10.7522 29.1552 10.6768 28.821L10.0475 25.995C9.20803 25.6382 8.41205 25.1919 7.67419 24.6645L4.83397 25.542C4.49779 25.646 4.13505 25.6353 3.80599 25.5117C3.47693 25.3881 3.20135 25.159 3.02501 24.8625L0.204893 20.136C0.0304066 19.8392 -0.0350914 19.4937 0.0191153 19.1561C0.073322 18.8185 0.244024 18.5087 0.503294 18.2775L2.70651 16.3275C2.60632 15.4442 2.60632 14.5528 2.70651 13.6695L0.503294 11.724C0.243657 11.4927 0.0727227 11.1826 0.0185071 10.8447C-0.0357085 10.5067 0.0300107 10.161 0.204893 9.864L3.01883 5.1345C3.19517 4.83797 3.47075 4.60889 3.79981 4.48528C4.12887 4.36168 4.4916 4.35099 4.82779 4.455L7.66801 5.3325C8.04526 5.0625 8.43798 4.8105 8.84306 4.5825C9.23423 4.3695 9.63622 4.176 10.0475 4.0035L10.6783 1.1805C10.7534 0.846296 10.944 0.547032 11.2184 0.332323C11.4929 0.117615 11.8347 0.000359949 12.1873 0H17.8152C18.1678 0.000359949 18.5096 0.117615 18.7841 0.332323C19.0585 0.547032 19.2491 0.846296 19.3242 1.1805L19.9612 4.005C20.8002 4.36185 21.5956 4.80809 22.3329 5.3355L25.1747 4.458C25.5107 4.35437 25.8731 4.36526 26.2018 4.48884C26.5305 4.61243 26.8058 4.84129 26.9821 5.1375L29.7961 9.867C30.1548 10.4775 30.0311 11.25 29.4977 11.7255L27.2944 13.6755C27.3946 14.5588 27.3946 15.4502 27.2944 16.3335L29.4977 18.2835C30.0311 18.7605 30.1548 19.5315 29.7961 20.142L26.9821 24.8715C26.8058 25.168 26.5302 25.3971 26.2011 25.5207C25.8721 25.6443 25.5093 25.655 25.1732 25.551L22.3329 24.6735C21.5957 25.2005 20.8002 25.6463 19.9612 26.0025L19.3242 28.821C19.2488 29.1549 19.0581 29.4538 18.7837 29.6683C18.5092 29.8827 18.1675 29.9997 17.8152 30ZM8.22925 21.3435L9.49707 22.2435C9.7831 22.4475 10.08 22.635 10.3892 22.806C10.6798 22.9695 10.9767 23.1165 11.2844 23.25L12.7269 23.8635L13.4335 27H16.5721L17.2787 23.862L18.7212 23.2485C19.3505 22.9785 19.9488 22.644 20.5039 22.2495L21.7717 21.3495L24.9289 22.3245L26.4982 19.6875L24.0507 17.523L24.2238 16.005C24.3012 15.3405 24.3012 14.67 24.2238 14.007L24.0507 12.489L26.4997 10.32L24.9289 7.6815L21.7732 8.6565L20.5039 7.7565C19.9485 7.36004 19.3509 7.0226 18.7212 6.75L17.2787 6.1365L16.5721 3H13.4335L12.7223 6.138L11.2844 6.75C10.6538 7.01791 10.056 7.35297 9.5017 7.749L8.23234 8.649L5.07826 7.674L3.50586 10.32L5.95336 12.4815L5.7802 14.001C5.70289 14.6655 5.70289 15.336 5.7802 15.999L5.95336 17.517L3.50586 19.6815L5.07517 22.3185L8.22925 21.3435ZM14.9951 21C13.3548 21 11.7818 20.3679 10.622 19.2426C9.46217 18.1174 8.81059 16.5913 8.81059 15C8.81059 13.4087 9.46217 11.8826 10.622 10.7574C11.7818 9.63214 13.3548 9 14.9951 9C16.6353 9 18.2083 9.63214 19.3681 10.7574C20.528 11.8826 21.1795 13.4087 21.1795 15C21.1795 16.5913 20.528 18.1174 19.3681 19.2426C18.2083 20.3679 16.6353 21 14.9951 21ZM14.9951 12C14.3895 12.0006 13.7975 12.1737 13.2924 12.4977C12.7874 12.8218 12.3915 13.2826 12.1539 13.8229C11.9163 14.3633 11.8475 14.9594 11.956 15.5374C12.0644 16.1154 12.3454 16.6497 12.7641 17.0741C13.1827 17.4986 13.7206 17.7944 14.311 17.925C14.9014 18.0555 15.5183 18.015 16.0852 17.8085C16.6521 17.602 17.144 17.2386 17.4999 16.7633C17.8558 16.2881 18.0601 15.7219 18.0873 15.135V15.735V15C18.0873 14.2044 17.7615 13.4413 17.1816 12.8787C16.6017 12.3161 15.8152 12 14.9951 12Z" fill="white"/>
</svg>
