<svg width="18" height="18" viewBox="0 0 18 18" fill="none" xmlns="http://www.w3.org/2000/svg">
<path d="M9 10C8.71667 10 8.47933 9.904 8.288 9.712C8.096 9.52067 8 9.28333 8 9V1C8 0.716667 8.096 0.479 8.288 0.287C8.47933 0.0956666 8.71667 0 9 0C9.28333 0 9.521 0.0956666 9.713 0.287C9.90433 0.479 10 0.716667 10 1V9C10 9.28333 9.90433 9.52067 9.713 9.712C9.521 9.904 9.28333 10 9 10ZM9 18C7.75 18 6.57933 17.7627 5.488 17.288C4.396 16.8127 3.446 16.1707 2.638 15.362C1.82933 14.554 1.18733 13.604 0.712 12.512C0.237333 11.4207 0 10.25 0 9C0 7.85 0.208333 6.75 0.625 5.7C1.04167 4.65 1.64167 3.7 2.425 2.85C2.60833 2.65 2.84167 2.55 3.125 2.55C3.40833 2.55 3.65 2.65 3.85 2.85C4.03333 3.03333 4.11667 3.26233 4.1 3.537C4.08333 3.81233 3.98333 4.05833 3.8 4.275C3.21667 4.925 2.771 5.654 2.463 6.462C2.15433 7.27067 2 8.11667 2 9C2 10.95 2.67933 12.604 4.038 13.962C5.396 15.3207 7.05 16 9 16C10.95 16 12.604 15.3207 13.962 13.962C15.3207 12.604 16 10.95 16 9C16 8.11667 15.8417 7.26267 15.525 6.438C15.2083 5.61267 14.7583 4.875 14.175 4.225C13.9917 4.025 13.896 3.79167 13.888 3.525C13.8793 3.25833 13.9667 3.03333 14.15 2.85C14.35 2.65 14.5917 2.55 14.875 2.55C15.1583 2.55 15.3917 2.65 15.575 2.85C16.3583 3.7 16.9583 4.65 17.375 5.7C17.7917 6.75 18 7.85 18 9C18 10.25 17.7627 11.4207 17.288 12.512C16.8127 13.604 16.171 14.554 15.363 15.362C14.5543 16.1707 13.6043 16.8127 12.513 17.288C11.421 17.7627 10.25 18 9 18Z" fill="white" fill-opacity="0.87"/>
</svg>
