<svg width="25" height="10" viewBox="0 0 25 10" fill="none" xmlns="http://www.w3.org/2000/svg">
<path d="M20.5129 3.24066C18.2071 1.23394 15.2157 0 11.9127 0C6.72768 0 2.26554 3.0163 0.146648 7.39119C-0.252202 8.22629 0.196504 9.22341 1.08145 9.52255C1.81683 9.77183 2.61453 9.42284 2.95106 8.72485C4.57139 5.40941 7.97408 3.11602 11.9127 3.11602C14.3432 3.11602 16.5618 4.01343 18.2943 5.45926L15.9137 7.8399C15.1285 8.62513 15.6769 9.97125 16.7862 9.97125H23.7536C24.4391 9.97125 25 9.41037 25 8.72485V1.75743C25 0.648131 23.6539 0.0872482 22.8686 0.872485L20.5129 3.24066Z" fill="white" fill-opacity="0.87"/>
</svg>
