<svg width="1066" height="1066" viewBox="0 0 1066 1066" fill="none" xmlns="http://www.w3.org/2000/svg">
<path d="M115.226 0.188486C94.6928 1.38849 71.0928 9.38849 53.8928 20.9885C45.0928 26.9885 29.0928 42.7218 22.5595 51.9218C12.6928 65.7885 6.55949 79.9218 2.29282 98.5885C0.426154 106.988 0.159487 149.255 0.0261537 522.722C-0.10718 750.855 0.29282 943.789 0.69282 951.389C1.89282 969.389 4.55949 979.522 12.5595 996.189C30.6928 1033.52 65.4928 1058.86 106.293 1064.46C113.626 1065.52 242.959 1065.92 530.426 1065.92C888.293 1065.92 945.76 1065.66 955.36 1063.92C1012.56 1053.92 1056.43 1008.99 1064.56 951.922C1065.63 944.189 1065.89 844.589 1065.63 582.589L1065.23 223.922L1061.63 213.788C1052.16 187.122 1029.49 158.855 968.56 97.9218C904.96 34.1885 872.293 8.58849 846.56 2.45515C837.893 0.321819 810.293 0.188486 479.226 0.0551527C282.293 -0.0781806 118.559 0.0551527 115.226 0.188486ZM795.36 44.7218C804.96 49.2552 813.226 57.9218 816.56 66.9885C819.226 74.0552 819.226 76.7218 818.96 227.655L818.56 381.255L815.493 386.989C811.36 394.722 802.96 402.989 795.36 406.455L789.226 409.255H512.559H235.893L229.76 406.455C220.826 402.322 213.226 394.855 208.959 386.189L205.226 378.589V225.255V71.9218L208.026 65.9218C213.76 53.7885 224.56 44.8552 237.093 41.7885C239.36 41.2552 364.293 40.9885 514.559 40.9885L787.893 41.2552L795.36 44.7218ZM918.56 536.589C931.36 542.855 939.226 553.389 941.893 567.389C942.693 571.789 943.226 650.455 943.226 782.989C943.093 954.722 942.826 992.589 941.226 996.855C937.093 1008.99 927.626 1018.06 914.56 1022.59C908.293 1024.59 882.56 1024.72 532.16 1024.59C161.359 1024.46 156.293 1024.46 149.359 1021.92C140.159 1018.46 132.826 1011.92 127.893 1003.12L123.893 995.922L123.493 781.255C123.093 540.055 122.293 559.655 133.493 547.255C139.893 540.189 144.293 537.255 153.226 534.455C157.493 533.122 233.893 532.855 535.226 532.989L911.893 533.255L918.56 536.589Z" fill="white" fill-opacity="0.87"/>
<path d="M615.226 225.255V368.589H676.559H737.893V225.255V81.9218H676.559H615.226V225.255Z" fill="white" fill-opacity="0.87"/>
</svg>
