<svg width="1066" height="1066" viewBox="0 0 1066 1066" fill="none" xmlns="http://www.w3.org/2000/svg">
<path d="M115.226 0.188486C94.6928 1.38849 71.0928 9.38849 53.8928 20.9885C45.0928 26.9885 29.0928 42.7218 22.5595 51.9218C12.6928 65.7885 6.55949 79.9218 2.29282 98.5885C0.426154 106.988 0.159487 149.255 0.0261537 522.722C-0.10718 750.855 0.29282 943.789 0.69282 951.389C1.89282 969.389 4.55949 979.522 12.5595 996.189C30.6928 1033.52 65.4928 1058.86 106.293 1064.46C113.493 1065.52 211.493 1065.92 420.959 1065.92H725.226L704.56 1045.26L683.893 1024.59H420.293C159.626 1024.59 156.559 1024.59 149.493 1021.92C140.159 1018.46 132.826 1011.92 127.893 1003.12L123.893 995.922L123.493 781.255C123.226 587.789 123.359 566.055 125.359 560.322C128.159 551.655 138.559 540.455 147.493 536.455L154.559 533.255H533.226H911.893L918.56 536.589C931.226 542.855 939.226 553.389 941.893 567.389C942.693 571.522 943.226 613.255 943.226 672.189V770.189L979.76 807.655C1025.49 854.855 1033.49 863.789 1039.23 873.922C1047.36 888.189 1046.29 888.189 1053.09 873.922C1056.29 866.989 1060.43 856.189 1062.16 849.922L1065.23 838.589V531.255V223.922L1061.63 213.788C1052.16 187.122 1029.49 158.855 968.56 97.9218C904.96 34.1885 872.293 8.58849 846.56 2.45515C837.893 0.321819 810.293 0.188486 479.226 0.0551527C282.293 -0.0781806 118.559 0.0551527 115.226 0.188486ZM795.36 44.7218C804.96 49.2552 813.226 57.9218 816.56 66.9885C819.226 74.0552 819.226 76.7218 818.96 227.655L818.56 381.255L815.493 386.989C811.36 394.722 802.96 402.989 795.36 406.455L789.226 409.255H512.559H235.893L229.76 406.455C220.826 402.322 213.226 394.855 208.959 386.189L205.226 378.589V225.255V71.9218L208.026 65.9218C213.76 53.7885 224.56 44.8552 237.093 41.7885C239.36 41.2552 364.293 40.9885 514.559 40.9885L787.893 41.2552L795.36 44.7218Z" fill="white" fill-opacity="0.87"/>
<path d="M615.226 225.255V368.589H676.559H737.893V225.255V81.9218H676.559H615.226V225.255Z" fill="white" fill-opacity="0.87"/>
<path d="M507.626 576.855C505.36 577.655 501.493 580.189 499.093 582.722C491.093 590.989 490.96 590.722 516.56 677.255C529.093 719.789 540.426 757.789 541.626 761.655C543.76 768.189 549.36 774.055 638.693 863.655C724.026 949.122 754.426 978.589 787.893 1007.92C793.626 1013.12 807.093 1025.26 817.76 1035.12C841.36 1056.99 846.693 1059.79 863.226 1059.92C882.826 1059.92 884.959 1058.46 931.359 1011.66C977.759 964.989 977.226 965.655 977.226 944.589C977.226 931.789 976.959 929.922 973.359 923.255C971.226 919.122 963.893 910.189 956.693 902.589C949.626 895.255 934.826 879.655 923.893 867.922C912.959 856.189 867.626 809.922 823.226 765.255C737.626 678.855 698.293 638.589 692.159 630.855C689.359 627.255 686.559 625.522 680.826 623.922C670.959 621.122 587.36 596.322 547.626 584.455C530.56 579.389 515.626 575.255 514.293 575.389C512.96 575.522 510.026 576.189 507.626 576.855ZM598.56 641.255C630.293 650.455 659.893 659.522 660.293 659.922C660.426 660.055 654.159 671.789 646.159 686.055L631.626 711.922L605.76 726.855C591.493 735.122 579.36 741.789 578.56 741.789C577.893 741.922 571.36 721.789 564.026 697.122L550.826 652.322L560.56 642.589C569.226 633.922 570.56 632.989 573.76 633.922C575.626 634.455 586.826 637.789 598.56 641.255Z" fill="white" fill-opacity="0.87"/>
</svg>
