<svg width="16" height="16" viewBox="0 0 16 16" fill="none" xmlns="http://www.w3.org/2000/svg">
<path fill-rule="evenodd" clip-rule="evenodd" d="M5.99999 1C5.99999 0.734784 6.10535 0.48043 6.29288 0.292893C6.48042 0.105357 6.73477 0 6.99999 0L8.99999 0C9.26521 0 9.51956 0.105357 9.7071 0.292893C9.89463 0.48043 9.99999 0.734784 9.99999 1C9.99999 1.26522 9.89463 1.51957 9.7071 1.70711C9.51956 1.89464 9.26521 2 8.99999 2V2.07C10.0032 2.21367 10.9629 2.57476 11.812 3.128L12.72 2.22C12.7887 2.14631 12.8715 2.08721 12.9635 2.04622C13.0554 2.00523 13.1548 1.98319 13.2555 1.98141C13.3562 1.97963 13.4562 1.99816 13.5496 2.03588C13.643 2.0736 13.7278 2.12974 13.799 2.20096C13.8702 2.27218 13.9264 2.35701 13.9641 2.4504C14.0018 2.54379 14.0204 2.64382 14.0186 2.74452C14.0168 2.84523 13.9948 2.94454 13.9538 3.03654C13.9128 3.12854 13.8537 3.21134 13.78 3.28L12.98 4.08C14.0863 5.20043 14.7826 6.66114 14.9563 8.22613C15.13 9.79111 14.771 11.369 13.9373 12.7047C13.1036 14.0405 11.8438 15.0561 10.3616 15.5876C8.87943 16.119 7.26134 16.1352 5.7688 15.6336C4.27626 15.1319 2.99645 14.1416 2.13616 12.8228C1.27587 11.504 0.88535 9.93369 1.02769 8.36554C1.17004 6.79739 1.83693 5.32304 2.92063 4.18069C4.00432 3.03834 5.44151 2.29473 6.99999 2.07V2C6.73477 2 6.48042 1.89464 6.29288 1.70711C6.10535 1.51957 5.99999 1.26522 5.99999 1V1ZM13.5 9C13.5 10.4587 12.9205 11.8576 11.8891 12.8891C10.8576 13.9205 9.45868 14.5 7.99999 14.5C6.5413 14.5 5.14235 13.9205 4.1109 12.8891C3.07945 11.8576 2.49999 10.4587 2.49999 9C2.49999 7.54131 3.07945 6.14236 4.1109 5.11091C5.14235 4.07946 6.5413 3.5 7.99999 3.5C9.45868 3.5 10.8576 4.07946 11.8891 5.11091C12.9205 6.14236 13.5 7.54131 13.5 9V9ZM8.74999 5.75C8.74999 5.55109 8.67097 5.36032 8.53032 5.21967C8.38967 5.07902 8.1989 5 7.99999 5C7.80108 5 7.61031 5.07902 7.46966 5.21967C7.32901 5.36032 7.24999 5.55109 7.24999 5.75V9.31L7.46999 9.53L9.72399 11.784C9.79265 11.8577 9.87545 11.9168 9.96745 11.9578C10.0594 11.9988 10.1588 12.0208 10.2595 12.0226C10.3602 12.0244 10.4602 12.0058 10.5536 11.9681C10.647 11.9304 10.7318 11.8743 10.803 11.803C10.8742 11.7318 10.9304 11.647 10.9681 11.5536C11.0058 11.4602 11.0244 11.3602 11.0226 11.2595C11.0208 11.1588 10.9988 11.0595 10.9578 10.9675C10.9168 10.8755 10.8577 10.7927 10.784 10.724L8.74999 8.689V5.75Z" fill="white" fill-opacity="0.87"/>
</svg>
