<svg width="500" height="200" viewBox="0 0 500 200" fill="none" xmlns="http://www.w3.org/2000/svg">
<path d="M261.615 0C195.588 0 135.791 24.6666 89.6966 64.7809L42.6059 17.6902C26.909 1.99326 0 12.9562 0 35.1312V174.41C0 188.114 11.2121 199.326 24.9157 199.326H164.195C186.37 199.326 197.582 172.417 181.885 156.72L134.296 109.131C168.929 80.2286 213.029 62.2893 261.864 62.2893C340.598 62.2893 408.618 108.134 441.008 174.41C447.735 188.363 463.681 195.339 478.382 190.356C496.072 184.625 505.042 164.444 497.068 147.501C454.213 60.296 365.015 0 261.615 0Z" fill="white" fill-opacity="0.87"/>
</svg>
