<svg width="500" height="500" viewBox="0 0 500 500" fill="none" xmlns="http://www.w3.org/2000/svg">
<path d="M50 0C36.7392 0 24.0215 5.26784 14.6447 14.6447C5.26784 24.0215 0 36.7392 0 50L0 183.333C0 196.594 5.26784 209.312 14.6447 218.689C24.0215 228.065 36.7392 233.333 50 233.333H183.333C196.594 233.333 209.312 228.065 218.689 218.689C228.065 209.312 233.333 196.594 233.333 183.333V50C233.333 36.7392 228.065 24.0215 218.689 14.6447C209.312 5.26784 196.594 0 183.333 0L50 0ZM316.667 0C303.406 0 290.688 5.26784 281.311 14.6447C271.934 24.0215 266.667 36.7392 266.667 50V183.333C266.667 196.594 271.934 209.312 281.311 218.689C290.688 228.065 303.406 233.333 316.667 233.333H450C463.261 233.333 475.979 228.065 485.355 218.689C494.732 209.312 500 196.594 500 183.333V50C500 36.7392 494.732 24.0215 485.355 14.6447C475.979 5.26784 463.261 0 450 0L316.667 0ZM50 266.667C36.7392 266.667 24.0215 271.934 14.6447 281.311C5.26784 290.688 0 303.406 0 316.667L0 450C0 463.261 5.26784 475.979 14.6447 485.355C24.0215 494.732 36.7392 500 50 500H183.333C196.594 500 209.312 494.732 218.689 485.355C228.065 475.979 233.333 463.261 233.333 450V316.667C233.333 303.406 228.065 290.688 218.689 281.311C209.312 271.934 196.594 266.667 183.333 266.667H50ZM316.667 266.667C303.406 266.667 290.688 271.934 281.311 281.311C271.934 290.688 266.667 303.406 266.667 316.667V450C266.667 463.261 271.934 475.979 281.311 485.355C290.688 494.732 303.406 500 316.667 500H450C463.261 500 475.979 494.732 485.355 485.355C494.732 475.979 500 463.261 500 450V316.667C500 303.406 494.732 290.688 485.355 281.311C475.979 271.934 463.261 266.667 450 266.667H316.667Z" fill="white" fill-opacity="0.6"/>
</svg>
