<svg width="30" height="30" viewBox="0 0 30 30" fill="none" xmlns="http://www.w3.org/2000/svg">
<path d="M3 0C2.20435 0 1.44129 0.31607 0.87868 0.87868C0.31607 1.44129 0 2.20435 0 3L0 11C0 11.7956 0.31607 12.5587 0.87868 13.1213C1.44129 13.6839 2.20435 14 3 14H11C11.7956 14 12.5587 13.6839 13.1213 13.1213C13.6839 12.5587 14 11.7956 14 11V3C14 2.20435 13.6839 1.44129 13.1213 0.87868C12.5587 0.31607 11.7956 0 11 0L3 0ZM19 0C18.2044 0 17.4413 0.31607 16.8787 0.87868C16.3161 1.44129 16 2.20435 16 3V11C16 11.7956 16.3161 12.5587 16.8787 13.1213C17.4413 13.6839 18.2044 14 19 14H27C27.7956 14 28.5587 13.6839 29.1213 13.1213C29.6839 12.5587 30 11.7956 30 11V3C30 2.20435 29.6839 1.44129 29.1213 0.87868C28.5587 0.31607 27.7956 0 27 0L19 0ZM3 16C2.20435 16 1.44129 16.3161 0.87868 16.8787C0.31607 17.4413 0 18.2044 0 19L0 27C0 27.7956 0.31607 28.5587 0.87868 29.1213C1.44129 29.6839 2.20435 30 3 30H11C11.7956 30 12.5587 29.6839 13.1213 29.1213C13.6839 28.5587 14 27.7956 14 27V19C14 18.2044 13.6839 17.4413 13.1213 16.8787C12.5587 16.3161 11.7956 16 11 16H3ZM19 16C18.2044 16 17.4413 16.3161 16.8787 16.8787C16.3161 17.4413 16 18.2044 16 19V27C16 27.7956 16.3161 28.5587 16.8787 29.1213C17.4413 29.6839 18.2044 30 19 30H27C27.7956 30 28.5587 29.6839 29.1213 29.1213C29.6839 28.5587 30 27.7956 30 27V19C30 18.2044 29.6839 17.4413 29.1213 16.8787C28.5587 16.3161 27.7956 16 27 16H19Z" fill="white"/>
</svg>
