<svg width="500" height="500" viewBox="0 0 500 500" fill="none" xmlns="http://www.w3.org/2000/svg">
<g clip-path="url(#clip0_511_1879)">
<path d="M461.653 410.796C461.653 434.455 452.254 457.144 435.525 473.873C418.796 490.602 396.107 500 372.449 500C348.791 500 326.101 490.602 309.372 473.873C292.643 457.144 283.245 434.455 283.245 410.796C283.281 399.742 285.321 388.786 289.266 378.46L186.459 312.449C174.082 325.165 158.193 333.901 140.824 337.539C123.456 341.177 105.397 339.552 88.9572 332.872C72.5171 326.192 58.4431 314.76 48.5345 300.039C38.626 285.317 33.3334 267.975 33.3334 250.23C33.3334 232.484 38.626 215.142 48.5345 200.421C58.4431 185.699 72.5171 174.268 88.9572 167.588C105.397 160.908 123.456 159.283 140.824 162.921C158.193 166.558 174.082 175.294 186.459 188.01L289.266 121.999C285.321 111.673 283.281 100.717 283.245 89.6629C283.19 68.9166 290.351 48.7966 303.5 32.7491C316.648 16.7016 334.968 5.72513 355.32 1.69967C375.672 -2.32579 396.791 0.850239 415.059 10.6838C433.327 20.5173 447.607 36.3965 455.454 55.6016C463.302 74.8067 464.227 96.1427 458.073 115.955C451.918 135.768 439.067 152.824 421.719 164.203C404.372 175.582 383.607 180.575 362.983 178.327C342.359 176.08 323.158 166.731 308.668 151.883L205.861 217.893C213.886 238.704 213.886 261.755 205.861 282.566L308.668 348.577C321.054 335.91 336.93 327.218 354.275 323.608C371.619 319.999 389.645 321.636 406.056 328.31C422.466 334.984 436.518 346.394 446.419 361.084C456.321 375.774 461.624 393.08 461.653 410.796Z" fill="white" fill-opacity="0.6"/>
</g>
<defs>
<clipPath id="clip0_511_1879">
<rect width="500" height="500" fill="white"/>
</clipPath>
</defs>
</svg>
