<svg width="500" height="500" viewBox="0 0 500 500" fill="none" xmlns="http://www.w3.org/2000/svg">
<path d="M455.059 116.393C455.732 116 456.291 115.437 456.68 114.76C457.068 114.084 457.273 113.317 457.273 112.537C457.273 111.757 457.068 110.99 456.68 110.314C456.291 109.637 455.732 109.075 455.059 108.681L284.634 9.65094C273.729 3.32924 261.348 0 248.744 0C236.14 0 223.76 3.32924 212.855 9.65094L42.4637 108.681C41.7899 109.075 41.231 109.637 40.8425 110.314C40.454 110.99 40.2496 111.757 40.2496 112.537C40.2496 113.317 40.454 114.084 40.8425 114.76C41.231 115.437 41.7899 116 42.4637 116.393L246.518 236.448C247.205 236.852 247.987 237.065 248.783 237.065C249.58 237.065 250.362 236.852 251.049 236.448L455.059 116.393ZM23.3614 146.758C22.6808 146.365 21.9085 146.159 21.1226 146.16C20.3367 146.161 19.5651 146.37 18.8857 146.765C18.2064 147.16 17.6434 147.728 17.2538 148.411C16.8641 149.093 16.6616 149.867 16.6667 150.653V344.707C16.6836 354.059 19.1479 363.243 23.8146 371.346C28.4813 379.45 35.1878 386.19 43.267 390.897L224.203 499.402C224.881 499.794 225.65 500 226.433 500C227.216 500 227.986 499.794 228.664 499.403C229.342 499.012 229.906 498.449 230.298 497.771C230.69 497.093 230.897 496.324 230.897 495.541V270.395C230.897 269.613 230.69 268.844 230.298 268.166C229.907 267.488 229.344 266.926 228.666 266.534L23.3614 146.758ZM266.603 271.177V495.485C266.603 496.268 266.81 497.037 267.202 497.715C267.594 498.393 268.158 498.956 268.836 499.347C269.514 499.739 270.284 499.944 271.067 499.944C271.85 499.944 272.619 499.738 273.297 499.346L454.222 390.841C462.295 386.14 468.999 379.41 473.667 371.317C478.335 363.224 480.806 354.05 480.833 344.707V150.653C480.831 149.87 480.622 149.103 480.229 148.426C479.837 147.75 479.273 147.189 478.595 146.799C477.917 146.409 477.148 146.204 476.366 146.205C475.584 146.205 474.816 146.412 474.139 146.803L268.834 267.327C268.158 267.717 267.596 268.278 267.204 268.954C266.813 269.629 266.605 270.396 266.603 271.177V271.177Z" fill="white" fill-opacity="0.6"/>
</svg>
