<svg width="500" height="500" viewBox="0 0 500 500" fill="none" xmlns="http://www.w3.org/2000/svg">
<path d="M296.92 500H203.122C197.245 500.001 191.544 498.053 186.965 494.479C182.386 490.905 179.204 485.92 177.946 480.35L167.458 433.25C153.467 427.303 140.201 419.865 127.903 411.075L80.5662 425.7C74.9631 427.433 68.9175 427.255 63.4332 425.195C57.9488 423.135 53.3558 419.317 50.4169 414.375L3.41489 335.6C0.506777 330.653 -0.584857 324.896 0.318589 319.269C1.22203 313.642 4.06707 308.479 8.38823 304.625L45.1086 272.125C43.4387 257.403 43.4387 242.547 45.1086 227.825L8.38823 195.4C4.06094 191.544 1.21204 186.377 0.308451 180.745C-0.595141 175.112 0.500179 169.349 3.41489 164.4L50.3138 85.575C53.2528 80.6329 57.8458 76.8148 63.3301 74.7547C68.8144 72.6946 74.8601 72.5165 80.4631 74.25L127.8 88.875C134.088 84.375 140.633 80.175 147.384 76.375C153.904 72.825 160.604 69.6 167.458 66.725L177.972 19.675C179.223 14.1049 182.4 9.11719 186.974 5.53872C191.548 1.96025 197.246 0.00599915 203.122 0H296.92C302.796 0.00599915 308.493 1.96025 313.068 5.53872C317.642 9.11719 320.818 14.1049 322.07 19.675L332.687 66.75C346.669 72.6975 359.927 80.1348 372.216 88.925L419.578 74.3C425.178 72.5729 431.218 72.7543 436.697 74.814C442.175 76.8738 446.764 80.6882 449.702 85.625L496.601 164.45C502.579 174.625 500.518 187.5 491.628 195.425L454.907 227.925C456.577 242.647 456.577 257.503 454.907 272.225L491.628 304.725C500.518 312.675 502.579 325.525 496.601 335.7L449.702 414.525C446.763 419.467 442.17 423.285 436.686 425.345C431.201 427.405 425.156 427.583 419.553 425.85L372.216 411.225C359.928 420.009 346.669 427.438 332.687 433.375L322.07 480.35C320.813 485.915 317.635 490.897 313.061 494.471C308.487 498.045 302.792 499.995 296.92 500ZM137.154 355.725L158.284 370.725C163.052 374.125 167.999 377.25 173.153 380.1C177.997 382.825 182.945 385.275 188.073 387.5L212.115 397.725L223.891 450H276.202L287.978 397.7L312.02 387.475C322.508 382.975 332.48 377.4 341.731 370.825L362.862 355.825L415.481 372.075L441.636 328.125L400.845 292.05L403.731 266.75C405.019 255.675 405.019 244.5 403.731 233.45L400.845 208.15L441.662 172L415.481 128.025L362.887 144.275L341.731 129.275C332.475 122.667 322.515 117.043 312.02 112.5L287.978 102.275L276.202 50H223.891L212.038 102.3L188.073 112.5C177.564 116.965 167.599 122.549 158.362 129.15L137.206 144.15L84.6376 127.9L58.4309 172L99.2227 208.025L96.3366 233.35C95.0482 244.425 95.0482 255.6 96.3366 266.65L99.2227 291.95L58.4309 328.025L84.5861 371.975L137.154 355.725ZM249.918 350C222.581 350 196.363 339.464 177.033 320.711C157.703 301.957 146.843 276.522 146.843 250C146.843 223.478 157.703 198.043 177.033 179.289C196.363 160.536 222.581 150 249.918 150C277.255 150 303.472 160.536 322.802 179.289C342.133 198.043 352.992 223.478 352.992 250C352.992 276.522 342.133 301.957 322.802 320.711C303.472 339.464 277.255 350 249.918 350ZM249.918 200C239.826 200.01 229.959 202.894 221.541 208.295C213.123 213.696 206.525 221.376 202.565 230.382C198.606 239.388 197.458 249.324 199.266 258.956C201.074 268.589 205.757 277.495 212.735 284.569C219.712 291.643 228.677 296.574 238.517 298.75C248.356 300.926 258.638 300.251 268.086 296.809C277.534 293.367 285.733 287.31 291.665 279.389C297.597 271.468 301.001 262.031 301.455 252.25V262.25V250C301.455 236.739 296.025 224.022 286.36 214.645C276.695 205.268 263.586 200 249.918 200Z" fill="white" fill-opacity="0.6"/>
</svg>
