<svg width="33" height="26" viewBox="0 0 33 26" fill="none" xmlns="http://www.w3.org/2000/svg">
<path d="M31.9531 13.798L26.596 24.5123C26.2946 25.1205 25.6752 25.5 24.9498 25.5H3.57143C1.59877 25.5 0 23.9007 0 21.9286V4.07143C0 2.09933 1.59877 0.5 3.57143 0.5H10.1283C11.0753 0.5 11.9838 0.876228 12.654 1.54632L15.3962 4.07143H23.2143C25.1869 4.07143 26.7857 5.67076 26.7857 7.64286V9.42857H24.1071V7.64286C24.1071 7.15045 23.7066 6.75 23.2143 6.75H14.2857L10.7589 3.44029C10.5915 3.27121 10.3683 3.17857 10.1283 3.17857H3.57143C3.07924 3.17857 2.67857 3.57924 2.67857 4.07143V20.1429L6.64955 12.202C6.79773 11.905 7.0258 11.6553 7.30814 11.4808C7.59047 11.3063 7.91587 11.214 8.24777 11.2143H30.3571C31.6797 11.2143 32.5446 12.6094 31.9531 13.798Z" fill="#E0E0E0"/>
</svg>
