<svg width="50" height="50" viewBox="0 0 50 50" fill="none" xmlns="http://www.w3.org/2000/svg">
<path d="M11.3467 20.44L11.3467 29.9083C11.3467 31.6486 12.2515 33.2636 13.7357 34.1724L23.33 40.0473L23.33 49.2316L5.97175 38.6655C4.48123 37.7583 3.57153 36.1395 3.57152 34.3946L3.57141 15.94L11.3467 20.44Z" fill="#509DFD"/>
<path d="M26.6699 40.0406L36.2604 34.1811C37.7469 33.2729 38.6536 31.6564 38.6536 29.9144V20.44L46.4284 15.95L46.4285 34.3985C46.4285 36.1431 45.5192 37.7615 44.0292 38.6689L26.6699 49.2408L26.6699 40.0406Z" fill="#8A97A8"/>
<path d="M37.6817 17.36L27.576 11.2853C25.9908 10.3325 24.0092 10.3325 22.424 11.2853L12.3183 17.36L4.35083 12.76L22.4642 2.2329C24.03 1.32291 25.9654 1.33072 27.5238 2.25331L45.4568 12.87L37.6817 17.36Z" fill="#FDB050"/>
</svg>
